/* XPM */
static char *_0f5631c4ee1443cfa5e8218e77e4274[] = {
/* columns rows colors chars-per-pixel */
"30 30 14 1 ",
"  c #076633",
". c #575C2E",
"X c #527452",
"o c #A6191E",
"O c #BB1622",
"+ c #BE1522",
"@ c #A52020",
"# c #088736",
"$ c #0B8E36",
"% c #878786",
"& c #898888",
"* c #9C9C9B",
"= c #9D9D9C",
"- c None",
/* pixels */
"------------------------------",
"------------------------------",
"------------------------------",
"------------------------------",
"------------------------------",
"--------------$$--------------",
"--------------$$--------------",
"-------------$$$$-------------",
"-------------$$$$-------------",
"------------$$$$$$------------",
"-------------$##$-------------",
"--------------  --------------",
"--------------  --------------",
"--------------  --------------",
"--------------  --------------",
"--------------  --------------",
"--------------  --------------",
"--------------.X--------------",
"-------------o@%%-------------",
"-----------ooo--%%%-----------",
"------++--oo------%%--==------",
"-----+++Oo----------&*===-----",
"-----++++-----------=====-----",
"----++++++----------======----",
"----+++++------------=====----",
"------------------------------",
"------------------------------",
"------------------------------",
"------------------------------",
"------------------------------"
};
