/* XPM */
static char *_141db7ac93e46a4bd48044265e65c59[] = {
/* columns rows colors chars-per-pixel */
"30 30 14 1 ",
"  c #076633",
". c #165A54",
"X c #527452",
"o c #088736",
"O c #0B8E36",
"+ c #2B2E83",
"@ c #2B2F85",
"# c #314596",
"$ c #314797",
"% c #878786",
"& c gray53",
"* c #999998",
"= c #9D9D9C",
"- c None",
/* pixels */
"------------------------------",
"------------------------------",
"------------------------------",
"------------------------------",
"------------------------------",
"--------------OO--------------",
"--------------OO--------------",
"-------------OOOO-------------",
"-------------OOOO-------------",
"------------OOOOOO------------",
"-------------OooO-------------",
"--------------  --------------",
"--------------  --------------",
"--------------  --------------",
"--------------  --------------",
"--------------  --------------",
"--------------  --------------",
"--------------X.--------------",
"-------------%%++-------------",
"-----------%%%--+++-----------",
"------==--%%------++--$$------",
"-----===*%----------+$$$$-----",
"-----====-----------$$$$$-----",
"----======----------$$$$$$----",
"----=====------------$$$$$----",
"------------------------------",
"------------------------------",
"------------------------------",
"------------------------------",
"------------------------------"
};
