/* XPM */
static char *a862e5723e844cdabfa2ffbc32002cd5[] = {
/* columns rows colors chars-per-pixel */
"30 30 15 1 ",
"  c #A6191E",
". c #A51E21",
"X c #BB1622",
"o c #BE1522",
"O c #977B72",
"+ c #2B2E83",
"@ c #2B2F85",
"# c #2D2F84",
"$ c #314596",
"% c #314797",
"& c #817E97",
"* c #878786",
"= c #999998",
"- c #9D9D9C",
"; c None",
/* pixels */
";;;;;;;;;;;;;;;;;;;;;;;;;;;;;;",
";;;;;;;;;;;;;;;;;;;;;;;;;;;;;;",
";;;;;;;;;;;;;;;;;;;;;;;;;;;;;;",
";;;;;;;;;;;;;;;;;;;;;;;;;;;;;;",
";;;;;;;;;;;;;;;;;;;;;;;;;;;;;;",
";;;;;;;;;;;;;;--;;;;;;;;;;;;;;",
";;;;;;;;;;;;;;--;;;;;;;;;;;;;;",
";;;;;;;;;;;;;----;;;;;;;;;;;;;",
";;;;;;;;;;;;;----;;;;;;;;;;;;;",
";;;;;;;;;;;;------;;;;;;;;;;;;",
";;;;;;;;;;;;;-==-;;;;;;;;;;;;;",
";;;;;;;;;;;;;;**;;;;;;;;;;;;;;",
";;;;;;;;;;;;;;**;;;;;;;;;;;;;;",
";;;;;;;;;;;;;;**;;;;;;;;;;;;;;",
";;;;;;;;;;;;;;**;;;;;;;;;;;;;;",
";;;;;;;;;;;;;;**;;;;;;;;;;;;;;",
";;;;;;;;;;;;;;**;;;;;;;;;;;;;;",
";;;;;;;;;;;;;;O&;;;;;;;;;;;;;;",
";;;;;;;;;;;;; .#+;;;;;;;;;;;;;",
";;;;;;;;;;;   ;;+++;;;;;;;;;;;",
";;;;;;oo;;  ;;;;;;+@;;$%;;;;;;",
";;;;;oooX ;;;;;;;;;;@$%%%;;;;;",
";;;;;oooo;;;;;;;;;;;%%%%%;;;;;",
";;;;oooooo;;;;;;;;;;%%%%%%;;;;",
";;;;ooooo;;;;;;;;;;;;%%%%%;;;;",
";;;;;;;;;;;;;;;;;;;;;;;;;;;;;;",
";;;;;;;;;;;;;;;;;;;;;;;;;;;;;;",
";;;;;;;;;;;;;;;;;;;;;;;;;;;;;;",
";;;;;;;;;;;;;;;;;;;;;;;;;;;;;;",
";;;;;;;;;;;;;;;;;;;;;;;;;;;;;;"
};
