/* XPM */
static char *b4df436df1c5451bd718fb10042c4658[] = {
/* columns rows colors chars-per-pixel */
"30 30 256 2 ",
"   c #0F0F0F",
".  c #130909",
"X  c #091309",
"o  c #0A0A12",
"O  c #121212",
"+  c #2C1513",
"@  c #112910",
"#  c #2C2D0F",
"$  c #16163F",
"%  c #10112C",
"&  c #260C26",
"*  c #2D123F",
"=  c #0D2727",
"-  c #11293F",
";  c #431A1A",
":  c #4D3215",
">  c #4A152F",
",  c #6E2526",
"<  c #732427",
"1  c #134017",
"2  c #195A1A",
"3  c #314A16",
"4  c #2D731D",
"5  c #154A31",
"6  c #1B732B",
"7  c #55531A",
"8  c #734D1C",
"9  c #52741F",
"0  c #737020",
"q  c #161859",
"w  c #331551",
"e  c #14354D",
"r  c #1F2372",
"t  c #531754",
"y  c #731A4F",
"u  c #4E1C73",
"i  c #711C71",
"p  c #185453",
"a  c #1D744F",
"s  c #1A5173",
"d  c #1D7271",
"f  c #B32A2E",
"g  c #942D29",
"h  c #F91B2F",
"j  c #F82529",
"k  c #EB2A32",
"l  c #D0282F",
"z  c #B04F21",
"x  c #B06F24",
"c  c #8D5D21",
"v  c #F9461E",
"b  c #EB481F",
"n  c #D64821",
"m  c #F05429",
"M  c #D67024",
"N  c #F97A23",
"B  c #EB7724",
"V  c #AF1B46",
"C  c #AC1E6C",
"Z  c #8D1C5F",
"A  c #FB104E",
"S  c #F41754",
"D  c #EB1650",
"F  c #D61C76",
"G  c #EA3469",
"H  c #E11F58",
"J  c #E76B50",
"K  c #E85671",
"L  c #E85E62",
"P  c #248D2F",
"I  c #28B029",
"U  c #1E8C27",
"Y  c #4C8D23",
"T  c #4CB028",
"R  c #70AC29",
"E  c #6E8D24",
"W  c #2BD62D",
"Q  c #33F82C",
"!  c #26F832",
"~  c #2BEB2E",
"^  c #7BD62E",
"/  c #57FA2F",
"(  c #52EF31",
")  c #5DE232",
"_  c #25AC4F",
"`  c #25B072",
"'  c #218E5F",
"]  c #2AF855",
"[  c #2EEC4A",
"{  c #29D775",
"}  c #2DF278",
"|  c #28D651",
" . c #4CE850",
".. c #6DE84E",
"X. c #4DE878",
"o. c #6FE66F",
"O. c #8C8926",
"+. c #B29028",
"@. c #97B22B",
"#. c #B3BF2E",
"$. c #D79829",
"%. c #EE832F",
"&. c #CAB52E",
"*. c #F9AC2A",
"=. c #EEAA31",
"-. c #87F832",
";. c #8AEC36",
":. c #B8F934",
">. c #B4ED38",
",. c #A3D72F",
"<. c #F1D737",
"1. c #FEE434",
"2. c #E9F938",
"3. c #F1FF38",
"4. c #CEDB33",
"5. c #E8934C",
"6. c #E7B16C",
"7. c #E8A657",
"8. c #8DE850",
"9. c #B3E854",
"0. c #9FE66E",
"q. c #EEDA52",
"w. c #E1ED4D",
"e. c #DBE46F",
"r. c #2E1D8C",
"t. c #18328C",
"y. c #221EAE",
"u. c #162BAE",
"i. c #4C22AA",
"p. c #7123AF",
"a. c #5E1F8C",
"s. c #1B4AAE",
"d. c #1E67AF",
"f. c #1E6B95",
"g. c #2120D4",
"h. c #082BF7",
"j. c #1A21F7",
"k. c #152BEB",
"l. c #2B31EB",
"z. c #102DD5",
"x. c #4A24D5",
"c. c #7325D5",
"v. c #4A24F8",
"b. c #4E2DEC",
"n. c #7D25F8",
"m. c #6D2CE9",
"M. c #1C79D5",
"N. c #1356F4",
"B. c #295CE1",
"V. c #5358E6",
"C. c #744BE7",
"Z. c #6A6EE5",
"A. c #B22193",
"S. c #9124B1",
"D. c #B725B7",
"F. c #8A208A",
"G. c #F81781",
"H. c #EC2F8C",
"J. c #FB1DB1",
"K. c #F01EAC",
"L. c #F028B0",
"P. c #D7209C",
"I. c #E84AB7",
"U. c #E6619B",
"Y. c #B027D8",
"T. c #842DEE",
"R. c #AF27F6",
"E. c #AE2AF2",
"W. c #9625CD",
"Q. c #ED2BD8",
"!. c #D92DEE",
"~. c #FD27E7",
"^. c #E629FD",
"/. c #D325C1",
"(. c #954CE6",
"). c #B64DE7",
"_. c #996BE5",
"`. c #EC4CDD",
"'. c #E86BCF",
"]. c #DB4DEB",
"[. c #CE6CE7",
"{. c #218C8A",
"}. c #26B392",
"|. c #2396B2",
" X c #26B2BF",
".X c #2BF781",
"XX c #37EC8A",
"oX c #29D1AF",
"OX c #2BFBB1",
"+X c #2FF0AE",
"@X c #28CF97",
"#X c #4EE896",
"$X c #4EE9B8",
"%X c #6CE79B",
"&X c #1885F7",
"*X c #1A81EA",
"=X c #308FEB",
"-X c #1FB8FD",
";X c #22B6F6",
":X c #2AB3EC",
">X c #21A1D7",
",X c #5290E6",
"<X c #738EE6",
"1X c #4ABCE8",
"2X c #69AAE6",
"3X c #31F0D9",
"4X c #2AD9EB",
"5X c #2DFEE5",
"6X c #2BEAFD",
"7X c #37E1F1",
"8X c #28C4D3",
"9X c #4FEDDB",
"0X c #6CE9CF",
"qX c #4DDFEC",
"wX c #6BD2E9",
"eX c #E89089",
"rX c #E9B291",
"tX c #E88BAD",
"yX c #EDAFB0",
"uX c #87E786",
"iX c #AEE992",
"pX c #91E9AB",
"aX c #B9EDB9",
"sX c #EACE92",
"dX c #CDE997",
"fX c #E8E693",
"gX c #EED1B7",
"hX c #D3EEB8",
"jX c #EBECB0",
"kX c #9382E6",
"lX c #AD94E8",
"zX c #8FACE8",
"xX c #B8B8ED",
"cX c #E994CA",
"vX c #EDB6D2",
"bX c #CF91E9",
"nX c #E995E5",
"mX c #D1B7ED",
"MX c #ECB7EC",
"NX c #91EACF",
"BX c #B7EED2",
"VX c #94CDE9",
"CX c #B6D3ED",
"ZX c #95E7E9",
"AX c #B7EDEC",
"SX c #F3D3D3",
"DX c #D2F2D2",
"FX c #EEEDD0",
"GX c #D2D2F2",
"HX c #E7CFF2",
"JX c #F2CFE8",
"KX c #CFEEED",
"LX c #E9F8E8",
"PX c #E8E8F7",
"IX c #FDFDFD",
"UX c #F3EEEE",
/* pixels */
"IXIXIXIXIXIXIXIXIXIXIXIXIXIXIXIXIXIXIXIXIXIXIXIXIXIXIXIXIXIX",
"IXIXIXIXIXIXIXIXIXIXIXIXIXIXIXIXIXIXIXIXIXIXIXIXIXIXIXIXIXIX",
"UXUXUXUXUXUXUXLXLXLXLXLXKXLXLXPXPXPXPXPXPXPXPXPXJXUXJXUXUXUX",
"SXSXgXFXFXFXFXFXhXDXDXDXKXKXKXKXKXKXGXGXGXGXHXHXHXJXJXJXSXJX",
"gXyXgXgXjXFXhXhXhXaXaXBXBXAXAXAXCXCXCXxXxXmXmXMXMXMXMXvXvXyX",
"yXrXsXsXjXfXdXdXiXiXpXpXNXBXZXZXZXVXzXzXlXlXxXbXnXnXcXcXyXyX",
"eXeXrXsXfXfXfXdXiXuXuXpXpXNXNXZXVXzXzX<XkXkXlX[.nXnXnXtXtXeX",
"L 7.6.6.q.e.9.0.0.o.X.%X%X0X0XqX2X2X,XZ.Z._._.[.[.`.'.U.K K ",
"L J 7.6.q.w.9.9..... .#X#X$X9XwX1X1X,XV.V.C.(.).].`.I.U.K L ",
"L B 5.7.q.w.9.8... . .X.#X$X3XqX1X,XB.V.b.C.(.).].].I.H.G G ",
"k m %.=.1.w.>.;.-.( [ } XX+X3X7X:X=XB.l.l.b.T.).!.~.L.H.G k ",
"k m N =.1.2.>.;./ Q ~ ] XX+X3X7X;X=XN.k.l.b.T.E.!.~.J.H.H k ",
"k m N *.1.2.:.-./ Q ! ] .XOX5X6X;X&XN.h.j.v.T.R.^.~.L.H.A h ",
"j v N *.1.3.:.-./ Q ! ] .XOX5X6X-X&XN.h.j.v.n.R.^.~.J.G.D h ",
"j v N *.1.3.:.-./ Q ! ] .XOX5X6X-X&XN.h.j.v.n.R.^.~.J.G.A h ",
"j v N *.1.3.:.-./ Q ! ] .XOX5X6X-X&XN.h.j.v.T.R.^.~.J.G.A h ",
"j v N *.1.2.:.-./ Q ! ] } OX5X6X-X&XN.h.j.v.n.R.^.~.J.G.A h ",
"j v N *.1.2.:.-./ ~ ! [ } OX5X6X;X&XN.h.j.v.n.R.!.~.J.G.A h ",
"j b B *.<.2.>.;.( ~ ~ [ } +X3X6X>X*XN.z.j.v.m.Y.!.Q.K.G.D h ",
"n n M $.<.4.,.^ ) ~ W [ { +XoX4X>X*XN.z.g.x.m.W.!.Q.P.F D l ",
"l n M $.&.4.@.^ ) I W | { @XoX8X>XM.s.z.g.x.c.W.Y./.P.F D l ",
"f z z +.&.#.^ R T I I _ ` }.oX X|.M.s.u.y.i.p.S.D.D.A.C V f ",
"f z z +.+.@.R E T I I _ _ ` }.|.d.f.s.u.y.i.i.p.S.A.C V V V ",
"g g c c O.O.E Y P U U P ' d {.{.f.s t.r r.r.a.a.F.F.Z Z y g ",
", < 8 8 0 0 0 9 4 4 6 6 a a d d s s r r r u u u i i y y < < ",
": : : 8 7 7 7 4 3 2 2 2 5 p p p s e e q q q w w u t y > > , ",
"; # ; : # 3 3 3 1 1 1 1 5 5 5 e - - - $ $ * * * > > > & ; > ",
"+ + + + + # # # @ @ @ @ 1 = = = = % % % % % % & & & & & + + ",
". . . X . @ X X X X X X X X o o o o o o o o o o o & . . . . ",
"+ .     . .     X X       X     X o O o o o     o o o .   & "
};
