/* XPM */
static char *_c9732612ca54f2af369db9f985b0fdd[] = {
/* columns rows colors chars-per-pixel */
"30 30 140 2 ",
"   c #27396B",
".  c #273A6C",
"X  c #283A6C",
"o  c #283A6D",
"O  c #283B6D",
"+  c #283B6E",
"@  c #293C6F",
"#  c #293C70",
"$  c #293D70",
"%  c #2A3D70",
"&  c #2A3D71",
"*  c #2A3E71",
"=  c #2A3E72",
"-  c #2B3E72",
";  c #2C3F73",
":  c #2C3F74",
">  c #2C4074",
",  c #2D4075",
"<  c #2D4076",
"1  c #2D4176",
"2  c #2D4177",
"3  c #2E4277",
"4  c #2E4278",
"5  c #2E4379",
"6  c #2F4379",
"7  c #2F437A",
"8  c #2F447A",
"9  c #30457B",
"0  c #30457C",
"q  c #31457D",
"w  c #31467D",
"e  c #31467E",
"r  c #31477E",
"t  c #32477F",
"y  c #324780",
"u  c #334880",
"i  c #334881",
"p  c #334981",
"a  c #334982",
"s  c #344982",
"d  c #344A83",
"f  c #344A84",
"g  c #354B84",
"h  c #354B85",
"j  c #364C86",
"k  c #364C87",
"l  c #364D88",
"z  c #374D88",
"x  c #374E89",
"c  c #374E8A",
"v  c #384F8A",
"b  c #384F8B",
"n  c #38508C",
"m  c #39508C",
"M  c #39508D",
"N  c #39518D",
"B  c #3A518E",
"V  c #3A528F",
"C  c #3B5290",
"Z  c #3B5390",
"A  c #3B5391",
"S  c #3B5392",
"D  c #3E5797",
"F  c #3E5798",
"G  c #3E5898",
"H  c #3E5899",
"J  c #3F5899",
"K  c #3F589A",
"L  c #3E599A",
"P  c #3F599A",
"I  c #3F599B",
"U  c #405A9C",
"Y  c #405B9D",
"T  c #415B9D",
"R  c #415B9F",
"E  c #415C9F",
"W  c #415CA0",
"Q  c #425DA1",
"!  c #425DA2",
"~  c #425EA2",
"^  c #435EA3",
"/  c #435FA3",
"(  c #455FA2",
")  c #435FA4",
"_  c #445FA5",
"`  c #4460A5",
"'  c #4460A6",
"]  c #4461A6",
"[  c #4561A7",
"{  c #4862A4",
"}  c #4A63A5",
"|  c #4561A8",
" . c #4562A8",
".. c #4662A8",
"X. c #4762A8",
"o. c #4662A9",
"O. c #4663AA",
"+. c #4663AB",
"@. c #4763AB",
"#. c #4A65AB",
"$. c #4D66A9",
"%. c #4E66A8",
"&. c #4965AC",
"*. c #4A66AD",
"=. c #4D67AD",
"-. c #4C67AE",
";. c #4F68AB",
":. c #4E68AE",
">. c #546AAC",
",. c #4F6AB1",
"<. c #506AB0",
"1. c #526BB0",
"2. c #536CB3",
"3. c #566EB2",
"4. c #576EB3",
"5. c #566EB4",
"6. c #5970B5",
"7. c #5B71B5",
"8. c #5B72B6",
"9. c #5B72B7",
"0. c #5D73B7",
"q. c #5F75B7",
"w. c #5E74B8",
"e. c #6075B8",
"r. c #6276B9",
"t. c #6377BA",
"y. c #6478BA",
"u. c #6679BB",
"i. c #687BBC",
"p. c #697BBC",
"a. c #6B7CBD",
"s. c #6C7DBD",
"d. c #6D7EBE",
"f. c #6E7FBE",
"g. c #6F7FBE",
"h. c gray54",
"j. c gray70",
"k. c gray78",
"l. c gray100",
"z. c None",
/* pixels */
"z.z.z.z.z.z.z.z.z.z.z.z.z.z.z.z.z.z.z.z.z.z.z.z.z.z.z.z.z.z.",
"z.z.z.z.z.z.z.z.z.z.z.z.z.z.z.z.z.z.z.z.z.z.z.z.z.z.z.z.z.z.",
"z.z.z.z.z.z.z.z.z.z.z.z.z.z.z.z.z.z.z.z.z.z.z.z.z.z.z.z.z.z.",
"z.z.z.z.z.l.j.z.z.z.z.z.z.z.z.z.z.z.z.z.z.z.z.z.z.z.z.z.z.z.",
"z.z.z.z.z.l.h.z.z.z.z.z.z.z.z.z.z.z.z.z.z.z.z.z.z.z.z.z.z.z.",
"z.z.z.l.l.l.k.l.l.z.z.z.z.z.z.z.z.z.z.z.z.z.z.z.z.z.z.z.z.z.",
"z.z.z.j.h.k.k.h.h.z.z.z.z.z.z.z.z.z.z.z.z.z.z.z.z.z.z.z.z.z.",
"z.z.z.z.z.l.h.z.z.z.z.z.z.z.z.z.{ & z.z.z.z.z.z.z.z.z.z.z.z.",
"z.z.z.z.z.l.h.z.z.z.z.z.z.z.z.z.%.1 z.z.z.z.z.z.z.z.z.z.z.z.",
"z.z.z.z.z.z.z.z.z.z.z.z.z.z.z.! ;.d + z.z.z.z.z.z.z.z.z.z.z.",
"z.z.z.z.z.z.z.z.z.z.z.z.z.z.z...>.d + z.z.z.z.z.z.z.z.z.z.z.",
"z.z.z.z.z.z.z.z.z.z.z.z.z.z.! :.%.k 1 X z.z.z.z.z.z.z.z.z.z.",
"z.z.z.z.z.z.z.z.z.z.z.z.z.z.' 4.} v 6 +   z.z.z.z.z.z.z.z.z.",
"z.z.z.z.z.z.z.z.z.z.z.z.z.E ..q.` v e @   z.z.z.z.z.z.z.z.z.",
"z.z.z.z.z.z.z.z.z.z.z.z.L _ ..u.E v e > +   z.z.z.z.z.z.z.z.",
"z.z.z.z.z.z.z.z.z.z.z.z.R ..*.u.E m d 1 @   z.z.z.z.z.z.z.z.",
"z.z.z.z.z.z.z.z.z.z.z.L ! ' 1.t.R m d 6 & .   z.z.z.z.z.z.z.",
"z.z.z.z.z.z.z.z.z.z.z.R ' ..6.w.R m g e : +   z.z.z.z.z.z.z.",
"z.z.z.z.z.z.z.z.z.z.L ! ....t.8.L m k e 1 & .   z.z.z.z.z.z.",
"z.z.z.z.z.z.z.z.z.z.R ' ....i.5.H C x y 1 & +   z.z.z.z.z.z.",
"z.z.z.z.z.z.z.z.z.L ! ' ..*.f.<.U C k d 8 : @     z.z.z.z.z.",
"z.z.z.z.z.z.z.z.z.I ' ..| 1.f.=.D C z d e : @ +   z.z.z.z.z.",
"z.z.z.z.z.z.z.z.H ! ' | ..9.s.#.U m v d e 1 - +     z.z.z.z.",
"z.z.z.z.z.z.z.z.I _ | | +.t.f...L Z v g t 8 - @ .   z.z.z.z.",
"z.z.z.z.z.z.z.D E ' ....*.i.i.' D Z m g e 6 1 & + X   z.z.z.",
"z.z.z.z.z.z.z.R ! ' ....,.s.y._ D Z m k d 9 1 - + X   z.z.z.",
"z.z.z.z.z.z.z.! _ ......5.f.0._ D S m x t 9 6 - @ +   z.z.z.",
"z.z.z.z.z.z.z.z.z.z.| ..0.f.8._ D S M k d e 6 1 z.z.z.z.z.z.",
"z.z.z.z.z.z.z.z.z.z.z.z.z.z.z.z.z.z.z.z.z.z.z.z.z.z.z.z.z.z.",
"z.z.z.z.z.z.z.z.z.z.z.z.z.z.z.z.z.z.z.z.z.z.z.z.z.z.z.z.z.z."
};
