/* XPM */
static char *_1ea4d1e9a5742afad9fa3ccd7503ff5[] = {
/* columns rows colors chars-per-pixel */
"30 30 36 1 ",
"  c #27396B",
". c #273A6C",
"X c #283B6E",
"o c #2A3D71",
"O c #2C4074",
"+ c #2D4076",
"@ c #2E4278",
"# c #30457C",
"$ c #30457D",
"% c #324880",
"& c #334880",
"* c #334881",
"= c #334981",
"- c #344982",
"; c #344A84",
": c #364C87",
"> c #364D87",
", c #364D88",
"< c #374E89",
"1 c #384E89",
"2 c #384F8B",
"3 c #38508C",
"4 c #39508C",
"5 c #39508D",
"6 c #3A528F",
"7 c #3A5290",
"8 c #3B5290",
"9 c #3B5391",
"0 c #3B5492",
"q c #3C5492",
"w c #3D5695",
"e c gray54",
"r c gray70",
"t c gray78",
"y c gray100",
"u c None",
/* pixels */
"uuuuuuuuuuuuuuuuuuuuuuuuuuuuuu",
"uuuuuuuuuuuuuuuuuuuuuuuuuuuuuu",
"uuuuuuuuuuuuuuuuuuuuuuuuuuuuuu",
"uuuuuyruuuuuuuuuuuuuuuuuuuuuuu",
"uuuuuyeuuuuuuuuuuuuuuuuuuuuuuu",
"uuuyyytyyuuuuuuuuuuuuuuuuuuuuu",
"uuuretteeuuuuuuuuuuuuuuuuuuuuu",
"uuuuuyeuuuuuuuuuuuuuuuuuuuuuuu",
"uuuuuyeuuuuuuuwwwwwwwwwuuuuuuu",
"uuuuuuuuuuuwwwwwwwwwwwwwwwuuuu",
"uuuuuuuuuuuwwwwwwwwwwwwwwwwuuu",
"uuuuuuuuuu-9wwwwwwwwwwwww9$uuu",
"uuuuuuuuuu$:449q0qww422$o. uuu",
"uuuuuuuuuu-:222,==$@+oX.XX.uuu",
"uuuuuuuuuu-:222:-=$@OoX. ..uuu",
"uuuuuuuuuu$:221::$#+OoX. ..uuu",
"uuuuuuuuuu=:142:-$$++oX.   uuu",
"uuuuuuuuuu*:,32:--$@OoX.   uuu",
"uuuuuuuuuu=:42,::=#@OoX.  .uuu",
"uuuuuuuuuu=:422:==#+OoX. ..uuu",
"uuuuuuuuuu=:221::=#@OoX.   uuu",
"uuuuuuuuuu=,221:;$#@OoX.   uuu",
"uuuuuuuuuu=:221:;$#@OoX.  .uuu",
"uuuuuuuuuu=:221:;=#@OoX. ..uuu",
"uuuuuuuuuu-:,42:;$$#OoX..  uuu",
"uuuuuuuuuu=,332:;=#@OoX....uuu",
"uuuuuuuuuuu,441:;;#@OoX....uuu",
"uuuuuuuuuuuuu11:;$#@OoX..uuuuu",
"uuuuuuuuuuuuuuuuuuuuuuuuuuuuuu",
"uuuuuuuuuuuuuuuuuuuuuuuuuuuuuu"
};
