/* XPM */
static char *_6120397daaf48a6c6f67217c889a1b2[] = {
/* columns rows colors chars-per-pixel */
"30 30 11 1 ",
"  c black",
". c #0F0202",
"X c #2C0507",
"o c #330608",
"O c #41080A",
"+ c #47080B",
"@ c #B2151B",
"# c #CB181F",
"$ c #DE1A22",
"% c #ED1C24",
"& c None",
/* pixels */
"&&&&&&&&&&&&&&&&&&&&&&&&&&&&&&",
"&&&&&&&&&&&&&&&&&&&&&&&&&&&&&&",
"&&&&&&&&&&&&&&&&&&&&&&&&&&&&&&",
"&&&&&&&&&&&&&&&&&&&&&&&&&&&&&&",
"&&&&&&&&&&&&&&&&&&&&&&&&&&&&&&",
"&&&&&&&&&&&&&&&&&&&&&&&&&&&&&&",
"&&&&&&&&&&&&&&&&&&&&&&&&&&&&&&",
"&&&&&&&&%&&&&&&&&&&&&%&&&&&&&&",
"&&&&&&&%%%&&&&&&&&&&%%%&&&&&&&",
"&&&&&&&&$%%&&&&&&&&%%$X&&&&&&&",
"&&&&&&&&+$%%&&&&&&%%$X &&&&&&&",
"&&&&&&&&&+$%%&&&&%%$X &&&&&&&&",
"&&&&&&&&&&+$%%&&%%$X &&&&&&&&&",
"&&&&&&&&&&&+$%%%%$X &&&&&&&&&&",
"&&&&&&&&&&&&+$%%$X &&&&&&&&&&&",
"&&&&&&&&&&&&&$%%$O&&&&&&&&&&&&",
"&&&&&&&&&&&&%%$$%%&&&&&&&&&&&&",
"&&&&&&&&&&&%%$Xo$%%&&&&&&&&&&&",
"&&&&&&&&&&%%$X &+$%%&&&&&&&&&&",
"&&&&&&&&&%%$X &&&+$%%&&&&&&&&&",
"&&&&&&&&%%$X &&&&&+$%%&&&&&&&&",
"&&&&&&&%%$X &&&&&&&+$%#&&&&&&&",
"&&&&&&&&@X &&&&&&&&&+@.&&&&&&&",
"&&&&&&&&& &&&&&&&&&&& &&&&&&&&",
"&&&&&&&&&&&&&&&&&&&&&&&&&&&&&&",
"&&&&&&&&&&&&&&&&&&&&&&&&&&&&&&",
"&&&&&&&&&&&&&&&&&&&&&&&&&&&&&&",
"&&&&&&&&&&&&&&&&&&&&&&&&&&&&&&",
"&&&&&&&&&&&&&&&&&&&&&&&&&&&&&&",
"&&&&&&&&&&&&&&&&&&&&&&&&&&&&&&"
};
