/* XPM */
static char *_39fc0a468c54bcaa33c3a344bc917f3[] = {
/* columns rows colors chars-per-pixel */
"30 30 11 1 ",
"  c #A7A9AC",
". c #AFB1B4",
"X c #B7B9BB",
"o c #BBBDBF",
"O c #BFC1C3",
"+ c #C7C9CB",
"@ c #CFD0D2",
"# c #D7D8DA",
"$ c #E3E4E5",
"% c #E7E8E9",
"& c None",
/* pixels */
"&&&&&&&&&&&&&&&&&&&&&&&&&&&&&&",
"&&&&&&&&&&&&&&&&&&&&&&&&&&&&&&",
"&&&&&&&&&&&&&&&&&&&&&&&&&&&&&&",
"&&&&&&&&&&&&&&&&&&&&&&&&&&&&&&",
"&&&&&&&&&&&&&&&&&&&&&&&&&&&&&&",
"&&&&&&&&&&&        &&&&&&&&&&&",
"&&&&&&&&&            &&&&&&&&&",
"&&&&&&&&              &&&&&&&&",
"&&&&&&&                &&&&&&&",
"&&&&&&   O$%o           &&&&&&",
"&&&&&&  .%%%+           &&&&&&",
"&&&&&   X%%%X            &&&&&",
"&&&&&    @#o             &&&&&",
"&&&&&                    &&&&&",
"&&&&&                    &&&&&",
"&&&&&                    &&&&&",
"&&&&&                    &&&&&",
"&&&&&                    &&&&&",
"&&&&&                    &&&&&",
"&&&&&&                  &&&&&&",
"&&&&&&                  &&&&&&",
"&&&&&&&                &&&&&&&",
"&&&&&&&&              &&&&&&&&",
"&&&&&&&&&            &&&&&&&&&",
"&&&&&&&&&&&        &&&&&&&&&&&",
"&&&&&&&&&&&&&&&&&&&&&&&&&&&&&&",
"&&&&&&&&&&&&&&&&&&&&&&&&&&&&&&",
"&&&&&&&&&&&&&&&&&&&&&&&&&&&&&&",
"&&&&&&&&&&&&&&&&&&&&&&&&&&&&&&",
"&&&&&&&&&&&&&&&&&&&&&&&&&&&&&&"
};
