/* XPM */
static char *_71410bc24b94a32f794f2495a9d20f9[] = {
/* columns rows colors chars-per-pixel */
"30 30 15 1 ",
"  c gray54",
". c gray70",
"X c gray78",
"o c #FEFDF0",
"O c #FEFEF4",
"+ c #FEFEF6",
"@ c #FFFEF8",
"# c #FFFEF9",
"$ c #FFFFFA",
"% c #FFFFFB",
"& c #FFFFFC",
"* c #FFFFFD",
"= c #FFFFFE",
"- c gray100",
"; c None",
/* pixels */
";;;;;;;;;;;;;;;;;;;;;;;;;;;;;;",
";;;;;;;;;;;;;;;;;;;;;;;;;;;;;;",
";;;;;;;;;;;;;;;;;;;;;;;;;;;;;;",
";;;;;-.;;;;;;;;-;;;;;;;;;;;;;;",
";;;;;- ;;;;;;;;-;;;;;;;;;;;;;;",
";;;---X--;;;;;;-;;;;;;;;;;;;;;",
";;;. XX  ;;;;;;;;;;;;;;;;;;;;;",
";;;;;- ;;;;;;;;;;;;;;;;;;;;;;;",
";;;;;- ;;;;;;;;;;;;;;;;;;;;;;;",
";;;;;;;;;;;;;;;;-;;;;;;;-;;;;;",
";;;;;;;;;;;;;;;;-;;;;;;-;;;;;;",
";;;;;;;;;;;;;;;;-;;;;;-;;;;;;;",
";;;;;;;;;;;;;;-@---O;-;;;;;;;;",
";;;;;;;;;;-;;-----@---;;;;;;;;",
";;;;;;;;;;;-----------;;;;;;;;",
";;;;;;;;;;;;----------;;;;;;;;",
";;;;;;;;;;;;----------@;;;;;;;",
";;;;;;;;;;;o@--------@@O;;;;;;",
";;;;;;;;;;;;----------;;;;;;;;",
";;;;;;;;;;;;----------;;;;;;;;",
";;;;;;;;;;;;-----------;;;;;;;",
";;;;;;;;;;-;;-@------;;-;;;;;;",
";;;;;;;;;-;;;;O---@@;;;;;-;;;;",
";;;;;;;-;;;;;;;;;;;;;;;;;;--;;",
";;;;;;;;;;;;;;;;;;;;;;;;;;;;;;",
";;;;;;;;;;;;;;;;;;;;;;;;;;;;;;",
";;;;;;;;;;;;;;;;;;;;;;;;;;;;;;",
";;;;;;;;;;;;;;;;;;;;;;;;;;;;;;",
";;;;;;;;;;;;;;;;;;;;;;;;;;;;;;",
";;;;;;;;;;;;;;;;;;;;;;;;;;;;;;"
};
