/* XPM */
static char *_f0ff56b6fae4300b5553a0da44c9939[] = {
/* columns rows colors chars-per-pixel */
"30 30 11 1 ",
"  c #056839",
". c #2B3173",
"X c #42315F",
"o c #A51E28",
"O c #BB1E2D",
"+ c #BF1E2E",
"@ c #9A2329",
"# c #0B9444",
"$ c #324799",
"% c #334BA0",
"& c None",
/* pixels */
"&&&&&&&&&&&&&&&&&&&&&&&&&&&&&&",
"&&&&&&&&&&&&&&&&&&&&&&&&&&&&&&",
"&&&&&&&&&&&&&&&&&&&&&&&&&&&&&&",
"&&&&&&&&&&&&&&&&&&&&&&&&&&&&&&",
"&&&&&&&&&&&&&&&&&&&&&&&&&&&&&&",
"&&&&&&&&&&&&&&&#&&&&&&&&&&&&&&",
"&&&&&&&&&&&&&&##&&&&&&&&&&&&&&",
"&&&&&&&&&&&&&&###&&&&&&&&&&&&&",
"&&&&&&&&&&&&&####&&&&&&&&&&&&&",
"&&&&&&&&&&&&&#####&&&&&&&&&&&&",
"&&&&&&&&&&&&######&&&&&&&&&&&&",
"&&&&&&&&&&&&&&  &&&&&&&&&&&&&&",
"&&&&&&&&&&&&&&  &&&&&&&&&&&&&&",
"&&&&&&&&&&&&&&  &&&&&&&&&&&&&&",
"&&&&&&&&&&&&&&  &&&&&&&&&&&&&&",
"&&&&&&&&&&&&&&  &&&&&&&&&&&&&&",
"&&&&&&&&&&&&&&  &&&&&&&&&&&&&&",
"&&&&&&&&&&&&&&  &&&&&&&&&&&&&&",
"&&&&&&&&&&&&&&@X&&&&&&&&&&&&&&",
"&&&&&&&&&&&&oo&&..&&&&&&&&&&&&",
"&&&&&&++&&ooo&&&&...&&%%&&&&&&",
"&&&&&&++Ooo&&&&&&&&..$%%&&&&&&",
"&&&&&++++&&&&&&&&&&&&%%%%&&&&&",
"&&&&++++++&&&&&&&&&&%%%%%%&&&&",
"&&&&++++++&&&&&&&&&&%%%%%%&&&&",
"&&&&&&&&&&&&&&&&&&&&&&&&&&&&&&",
"&&&&&&&&&&&&&&&&&&&&&&&&&&&&&&",
"&&&&&&&&&&&&&&&&&&&&&&&&&&&&&&",
"&&&&&&&&&&&&&&&&&&&&&&&&&&&&&&",
"&&&&&&&&&&&&&&&&&&&&&&&&&&&&&&"
};
