/* XPM */
static char *b8e2bdd8fe924eaee29cf808e0ba31cc[] = {
/* columns rows colors chars-per-pixel */
"30 30 159 2 ",
"   c #01061B",
".  c #040B1D",
"X  c #080E1F",
"o  c #0C1716",
"O  c #0E1C14",
"+  c #0A121F",
"@  c #101C14",
"#  c #10171A",
"$  c #0F2308",
"%  c #122405",
"&  c #112609",
"*  c #1B210E",
"=  c #11280D",
"-  c #162716",
";  c #1D2A16",
":  c #16211D",
">  c #1D261C",
",  c #1B2E18",
"<  c #1F331F",
"1  c #20221D",
"2  c #232F1E",
"3  c #213914",
"4  c #2D3218",
"5  c #000724",
"6  c #030C23",
"7  c #090F21",
"8  c #020D2B",
"9  c #051124",
"0  c #0A1323",
"q  c #0E1825",
"w  c #03112E",
"e  c #09162E",
"r  c #0C182D",
"t  c #121A25",
"y  c #101528",
"u  c #141D29",
"i  c #191F2A",
"p  c #021431",
"a  c #091632",
"s  c #031A36",
"d  c #0A1C36",
"f  c #021E3A",
"g  c #0D1D38",
"h  c #162525",
"j  c #1C2826",
"k  c #1B232C",
"l  c #04223D",
"z  c #252E22",
"x  c #273024",
"c  c #2B3624",
"v  c #283820",
"b  c #22302B",
"n  c #2C3629",
"m  c #323F20",
"M  c #373E2E",
"N  c #212536",
"B  c #212A34",
"V  c #292E3E",
"C  c #2B323B",
"Z  c #314124",
"A  c #33432C",
"S  c #3B452A",
"D  c #3B4431",
"F  c #434636",
"G  c #474F3B",
"H  c #494C3E",
"J  c #45553C",
"K  c #4A543D",
"L  c #052441",
"P  c #092542",
"I  c #072847",
"U  c #092B46",
"Y  c #0E2D49",
"T  c #142A42",
"R  c #163047",
"E  c #15344E",
"W  c #1D334A",
"Q  c #1D3751",
"!  c #1E3B56",
"~  c #243345",
"^  c #2E3744",
"/  c #243C46",
"(  c #2F3942",
")  c #223648",
"_  c #303C46",
"`  c #253D52",
"'  c #36464E",
"]  c #244158",
"[  c #324757",
"{  c #3E4653",
"}  c #30475B",
"|  c #34495B",
" . c #3B4A5F",
".. c #3D5556",
"X. c #314B62",
"o. c #394F62",
"O. c #375167",
"+. c #3D5466",
"@. c #424846",
"#. c #4B5244",
"$. c #525347",
"%. c #53554C",
"&. c #464D55",
"*. c #535350",
"=. c #555E55",
"-. c #5E5F56",
";. c #53575A",
":. c #5B6457",
">. c #646A5B",
",. c #415163",
"<. c #49596E",
"1. c #505663",
"2. c #565E67",
"3. c #575B68",
"4. c #4A5D73",
"5. c #4B6275",
"6. c #546675",
"7. c #586876",
"8. c #526579",
"9. c #5D6D7B",
"0. c #676A62",
"q. c #60666D",
"w. c #6B7566",
"e. c #60717C",
"r. c #6A7A7D",
"t. c #72747F",
"y. c #767E7F",
"u. c #5E7081",
"i. c #697283",
"p. c #6B7B87",
"a. c #657688",
"s. c #6A7B89",
"d. c #747A84",
"f. c #707F8F",
"g. c #778795",
"h. c #81878E",
"j. c #8D9684",
"k. c #8C938B",
"l. c #808597",
"z. c #808B9B",
"x. c #8E9399",
"c. c #949991",
"v. c #90949A",
"b. c #939AA1",
"n. c #9A9EA4",
"m. c #9EA4A5",
"M. c #9DA8B4",
"N. c #A2A7AD",
"B. c #A3ADB5",
"V. c #AFB3B7",
"C. c #AEB7BA",
"Z. c #BABFB6",
"A. c #B3B6BC",
"S. c #AFB9C1",
"D. c #BDC2CB",
"F. c #C7CBCE",
"G. c #C4C9D1",
"H. c #DADCD9",
"J. c None",
/* pixels */
"J.J.J.J.J.J.J.J.J.J.J.J.J.J.J.J.J.J.J.J.J.J.J.J.J.J.J.J.J.J.",
"J.J.J.J.J.J.J.J.J.J.J.J.J.J.J.J.J.J.J.J.J.J.J.J.J.J.J.J.J.J.",
"J.J.J.J.J.J.J.J.J.J.J.J.J.J.J.J.J.J.J.J.J.J.J.J.J.J.J.J.J.J.",
"J.J.J.J.J.J.J.J.J.J.J.J.J.J.J.J.J.J.J.J.J.J.J.J.J.J.J.J.J.J.",
"J.J.J.J.J.J.J.J.J.J.J.J.J.J.J.J.J.J.J.J.J.J.J.J.J.J.J.J.J.J.",
"J.J.J.J.J.J.J.J.J.J.J.H.m.m.b.x.d.h.V.J.J.J.J.J.J.J.J.J.J.J.",
"J.J.J.J.J.J.J.J.J.Z.j.w.N.A.n.v.;.q.&.2.F.J.J.J.J.J.J.J.J.J.",
"J.J.J.J.J.J.J.J.C./ ..r.c.k.=.0.0.@.( ( B A.J.J.J.J.J.J.J.J.",
"J.J.J.J.J.J.J.B.e.s.6.9.e.y.J >.0.b j 4 k 0 1.J.J.J.J.J.J.J.",
"J.J.J.J.J.J.S.g.s.7.+.` 9.` :.w.G Z v D O   0 t.J.J.J.J.J.J.",
"J.J.J.J.J.J.5.O.X.R ` <.u.} >.K S S A c k . 7 B J.J.J.J.J.J.",
"J.J.J.J.J.M.U Y E E i.G.z.o.M H S S 3 A C k .   3.J.J.J.J.J.",
"J.J.J.J.J.8.! U ] ! g.D.f.` ' %.F m < h . .     V J.J.J.J.J.",
"J.J.J.J.J.4.Y U E Y <.a.+.[ ) _ x c 6 5 .     . y J.J.J.J.J.",
"J.J.J.J.J.P E Y l L l l | d d e 8 > : - X     t   J.J.J.J.J.",
"J.J.J.J.J.` L Q L L l f s p a w 8 5 5 + : o - @ . J.J.J.J.J.",
"J.J.J.J.J. .f ` 9.,.W s s a w w 5 5 . . . : z ; @ J.J.J.J.J.",
"J.J.J.J.J.o.s s T T p p p a e r 6 9 6 . 6 ; n n = J.J.J.J.J.",
"J.J.J.J.J.i.g d w p w w 8 8 6 6 6 5 . . q 2 , = J J.J.J.J.J.",
"J.J.J.J.J.J.~ d d w 8 8 6 6 5 5 . . . q k > $ % J.J.J.J.J.J.",
"J.J.J.J.J.J.d.w 8 ( r 8 5 5 . . . q . + u j * #.J.J.J.J.J.J.",
"J.J.J.J.J.J.J.&.6 0 C 0 0             X u 1 -.J.J.J.J.J.J.J.",
"J.J.J.J.J.J.J.J.. 0 + u C 0   . .     q # $.J.J.J.J.J.J.J.J.",
"J.J.J.J.J.J.J.J.J.. i . + X   7 7 X X u *.J.J.J.J.J.J.J.J.J.",
"J.J.J.J.J.J.J.J.J.J.J.B u 0 t k k t . J.J.J.J.J.J.J.J.J.J.J.",
"J.J.J.J.J.J.J.J.J.J.J.J.J.J.J.J.J.J.J.J.J.J.J.J.J.J.J.J.J.J.",
"J.J.J.J.J.J.J.J.J.J.J.J.J.J.J.J.J.J.J.J.J.J.J.J.J.J.J.J.J.J.",
"J.J.J.J.J.J.J.J.J.J.J.J.J.J.J.J.J.J.J.J.J.J.J.J.J.J.J.J.J.J.",
"J.J.J.J.J.J.J.J.J.J.J.J.J.J.J.J.J.J.J.J.J.J.J.J.J.J.J.J.J.J.",
"J.J.J.J.J.J.J.J.J.J.J.J.J.J.J.J.J.J.J.J.J.J.J.J.J.J.J.J.J.J."
};
