/* XPM */
static char *_8758aeb09e64e79aafd004cee90cecf[] = {
/* columns rows colors chars-per-pixel */
"30 30 16 1 ",
"  c #496539",
". c #58613B",
"X c #2B3173",
"o c #293770",
"O c #293870",
"+ c #6E2854",
"@ c #792F56",
"# c #1F5562",
"$ c #A51E28",
"% c #BF1E2E",
"& c #9B262A",
"* c #902E2C",
"= c #0B9444",
"- c #138556",
"; c #334BA0",
": c None",
/* pixels */
"::::::::::::::::::::::::::::::",
"::::::::::::::::::::::::::::::",
"::::::::::::::::::::::::::::::",
"::::::::::::::::::::::::::::::",
"::::::::::::::::::::::::::::::",
"::::::::::::::::::::::::::::::",
"::::::::::::::==::::::::::::::",
"::::::::::::::==::::::::::::::",
"::::::::::::::==::::::::::::::",
"::::::::::::::==::::::::::::::",
"::::::::::::::==::::::::::::::",
":::::::::::::;-.::::::::::::::",
"::::::::::::;:==:%::::::::::::",
":::::::::::;::==::::::::::::::",
"::::::::::::::==::%:::::::::::",
"::::::::::;:::==:::%::::::::::",
":::::::::;::::==::::::::::::::",
":::::::::;::::==::::%:::::::::",
"::::::::::::::*O::::::::::::::",
"::::::::;:::$$:XXX:::%::::::::",
"::::::::;:$$$::::XXX:%::::::::",
"::::::::@$$::::::::XX+::::::::",
":::::::$& ::::::::::#oX:::::::",
":::::$$$::=::::::::=::XXX:::::",
":::::$:::::::====:::::::X:::::",
"::::::::::::::::::::::::::::::",
"::::::::::::::::::::::::::::::",
"::::::::::::::::::::::::::::::",
"::::::::::::::::::::::::::::::",
"::::::::::::::::::::::::::::::"
};
