/* XPM */
static char *_425d4cd984b402fd7ebe16b1bb54926[] = {
/* columns rows colors chars-per-pixel */
"30 30 32 1 ",
"  c #1D1E1E",
". c #232424",
"X c #262727",
"o c #2A2B2B",
"O c #363738",
"+ c #404142",
"@ c #434445",
"# c #4F5052",
"$ c #515253",
"% c #565759",
"& c #595A5B",
"* c #626465",
"= c #7C7E80",
"- c #818285",
"; c #858689",
": c #86878A",
"> c #88898C",
", c #8B8C8F",
"< c #929396",
"1 c #949699",
"2 c #959699",
"3 c #9A9B9E",
"4 c #9E9FA2",
"5 c #A0A2A5",
"6 c #A7A9AC",
"7 c #A9AAAD",
"8 c #B3B4B6",
"9 c #BDBEC0",
"0 c #C7C8CA",
"q c #CCCDCF",
"w c #D1D2D4",
"e c None",
/* pixels */
"eeeeeeeeeeeeeeeeeeeeeeeeeeeeee",
"eeeeeeeeeeeeeeeeeeeeeeeeeeeeee",
"eeeeeeeeeeeeeeeeeeeeeeeeeeeeee",
"eeeeeeeeeeeeeeeeeeeeeeeeeeeeee",
"eeeeeeeeeeeeeeeeeeeeeeeeeeeeee",
"eeeeeeeeeeeeeeeeee-eeeeeeeeeee",
"eeeeeeeeeeewwwwww2--eeeeeeeeee",
"eeeeeee--9wwwww272---eeeeeeeee",
"eeeeee---9wwwww-72----eeeeeeee",
"eeeeee---9wwwww-72-----eeeeeee",
"eeeeee---9wwwww902------eeeeee",
"eeeeee---9wq98732-------eeeeee",
"eeeeee---,--------------eeeeee",
"eeeeee------------------eeeeee",
"eeeeee------------------eeeeee",
"eeeeee-----------;,<,---eeeeee",
"eeeeee---->,214566661---eeeeee",
"eeeeee---466666666661---eeeeee",
"eeeeee---466666666661---eeeeee",
"eeeeee---466666666661---eeeeee",
"eeeeee---466666666661--# eeeee",
"eeeeee---466666666661--# eeeee",
"eeeeee%--466666666;=&@Oo eeeee",
"eeeee #--46;=*$+X        eeeee",
"eeee  O@O.          eeeeeeeeee",
"eeeee        eeeeeeeeeeeeeeeee",
"eeeeeeeeeeeeeeeeeeeeeeeeeeeeee",
"eeeeeeeeeeeeeeeeeeeeeeeeeeeeee",
"eeeeeeeeeeeeeeeeeeeeeeeeeeeeee",
"eeeeeeeeeeeeeeeeeeeeeeeeeeeeee"
};
