/* XPM */
static char *_ffeb5533c3648a3b2924498091a3c89[] = {
/* columns rows colors chars-per-pixel */
"30 30 108 2 ",
"   c #283B6E",
".  c #293C6F",
"X  c #2A3D70",
"o  c #2A3D71",
"O  c #2A3E71",
"+  c #2B3E72",
"@  c #2B3F72",
"#  c #2B3F73",
"$  c #2C3F74",
"%  c #2C4074",
"&  c #2D4175",
"*  c #2D4176",
"=  c #2D4177",
"-  c #2E4277",
";  c #2E4278",
":  c #2F4379",
">  c #2F437A",
",  c #2F447A",
"<  c #30447B",
"1  c #31457D",
"2  c #31467D",
"3  c #31467E",
"4  c #32467E",
"5  c #32477F",
"6  c #324780",
"7  c #324880",
"8  c #334880",
"9  c #344982",
"0  c #344A82",
"q  c #344A83",
"w  c #354B85",
"e  c #354C85",
"r  c #364C86",
"t  c #364C87",
"y  c #364D87",
"u  c #374D88",
"i  c #374E88",
"p  c #374E89",
"a  c #384F8A",
"s  c #384F8B",
"d  c #38508B",
"f  c #39508C",
"g  c #39508D",
"h  c #39518D",
"j  c #39518E",
"k  c #3A518E",
"l  c #3A528F",
"z  c #3A5290",
"x  c #3B5392",
"c  c #3B5492",
"v  c #3B5493",
"b  c #3C5493",
"n  c #3C5594",
"m  c #3D5595",
"M  c #3D5695",
"N  c #3D5696",
"B  c #3D5796",
"V  c #3E5797",
"C  c #3E5898",
"Z  c #3F5899",
"A  c #3F5999",
"S  c #3F599A",
"D  c #3F599B",
"F  c #405A9B",
"G  c #405A9C",
"H  c #405A9D",
"J  c #405B9D",
"K  c #415B9E",
"L  c #415C9F",
"P  c #415CA0",
"I  c #425DA1",
"U  c #425DA2",
"Y  c #425EA2",
"T  c #435EA2",
"R  c #435EA3",
"E  c #435FA4",
"W  c #4460A5",
"Q  c #4460A6",
"!  c #4561A7",
"~  c #4762A7",
"^  c #4561A8",
"/  c #4662A9",
"(  c #4662AA",
")  c #4763AA",
"_  c #4763AB",
"`  c #4764AC",
"'  c #4764AD",
"]  c #4765AE",
"[  c #4766AF",
"{  c #4B67AF",
"}  c #4E69B0",
"|  c #4D6AB2",
" . c #5A71B6",
".. c #5C72B7",
"X. c #5C73B7",
"o. c #5D73B7",
"O. c #5D73B8",
"+. c #5E74B8",
"@. c #6075B9",
"#. c #6C7EBE",
"$. c #6E7FBE",
"%. c #6F7FBE",
"&. c #7081BF",
"*. c gray54",
"=. c gray70",
"-. c gray78",
";. c gray100",
":. c None",
/* pixels */
":.:.:.:.:.:.:.:.:.:.:.:.:.:.:.:.:.:.:.:.:.:.:.:.:.:.:.:.:.:.",
":.:.:.:.:.:.:.:.:.:.:.:.:.:.:.:.:.:.:.:.:.:.:.:.:.:.:.:.:.:.",
":.:.:.:.:.:.:.:.:.:.:.:.:.:.:.:.:.:.:.:.:.:.:.:.:.:.:.:.:.:.",
":.:.:.:.:.;.=.:.:.:.:.:.:.:.:.:.:.:.:.:.:.:.:.:.:.:.:.:.:.:.",
":.:.:.:.:.;.*.:.:.:.:.:.:.:.:.:.:.:.:.:.:.:.:.:.:.:.:.:.:.:.",
":.:.:.;.;.;.-.;.;.:.:.:.:.:.:.:.:.:.:.:.:.:.:.:.:.:.:.:.:.:.",
":.:.:.=.*.-.-.*.*.:.:.:.:.:.:.:.:.:.:.:.:.:.:.:.:.:.:.:.:.:.",
":.:.:.:.:.;.*.:.:.:.:.:.:.s s f s r 8 : # :.:.:.:.:.:.:.:.:.",
":.:.:.:.:.;.*.:.:.:.:.z M J P J F x g w 1 &   :.:.:.:.:.:.:.",
":.:.:.:.:.:.:.:.:.:.M P ^ ^ ^ P L C x s 0 < #   :.:.:.:.:.:.",
":.:.:.:.:.:.:.:.:.M R ` ` ` ` ! P J M f r 1 : #   :.:.:.:.:.",
":.:.:.:.:.:.:.:.f R ` ` [ [ ` ^ R D M z r 8 , #     :.:.:.:.",
":.:.:.:.:.:.:.:.Z ^ ` ` |  .+.[ W D N z r 8 : # .   :.:.:.:.",
":.:.:.:.:.:.:.g P _ ` [ +.#.%.@.W C N y w 1 : # .     :.:.:.",
":.:.:.:.:.:.:.f J ^ ) ` +.%.&.@.W B z p 8 1 & # .     :.:.:.",
":.:.:.:.:.:.:.g J R ! ^ | ....~ C z d r 8 < & #       :.:.:.",
":.:.:.:.:.:.:.s Z D P R R R D C M f r 0 1 : $ #       :.:.:.",
":.:.:.:.:.:.:.r N C D J J C N N f y w 1 : & #         :.:.:.",
":.:.:.:.:.:.:.6 f v N M M N f f y q 6 , & # .         :.:.:.",
":.:.:.:.:.:.:.< w d f f f f y r w 6 , : & .           :.:.:.",
":.:.:.:.:.:.:.# 1 8 r y r r 0 8 1 : & $ #             :.:.:.",
":.:.:.:.:.:.:.:.& < 1 8 8 1 1 : : & $ .             :.:.:.:.",
":.:.:.:.:.:.:.:.. # : & : : & & $ #                 :.:.:.:.",
":.:.:.:.:.:.:.:.:.  . # # # # # .                 :.:.:.:.:.",
":.:.:.:.:.:.:.:.:.:.    . . .                   :.:.:.:.:.:.",
":.:.:.:.:.:.:.:.:.:.:.                        :.:.:.:.:.:.:.",
":.:.:.:.:.:.:.:.:.:.:.:.:.                :.:.:.:.:.:.:.:.:.",
":.:.:.:.:.:.:.:.:.:.:.:.:.:.:.:.:.:.:.:.:.:.:.:.:.:.:.:.:.:.",
":.:.:.:.:.:.:.:.:.:.:.:.:.:.:.:.:.:.:.:.:.:.:.:.:.:.:.:.:.:.",
":.:.:.:.:.:.:.:.:.:.:.:.:.:.:.:.:.:.:.:.:.:.:.:.:.:.:.:.:.:."
};
