/* XPM */
static char *a23eeff2b40a4e999a23fe3826c5ce38[] = {
/* columns rows colors chars-per-pixel */
"30 30 148 2 ",
"   c #203261",
".  c #213261",
"X  c #203262",
"o  c #213262",
"O  c #213362",
"+  c #213363",
"@  c #223464",
"#  c #233464",
"$  c #223565",
"%  c #233565",
"&  c #233566",
"*  c #243566",
"=  c #243667",
"-  c #253768",
";  c #253769",
":  c #26386A",
">  c #26396A",
",  c #26396B",
"<  c #27396B",
"1  c #27396C",
"2  c #273A6C",
"3  c #273B6D",
"4  c #283A6D",
"5  c #283B6D",
"6  c #283B6E",
"7  c #293B6E",
"8  c #293C6F",
"9  c #293C70",
"0  c #2A3D70",
"q  c #2A3E71",
"w  c #2B3E72",
"e  c #2B3E73",
"r  c #2B3F73",
"t  c #2C3F74",
"y  c #2C4074",
"u  c #2C4075",
"i  c #2D4075",
"p  c #2D4176",
"a  c #2D4177",
"s  c #2E4277",
"d  c #2E4278",
"f  c #2F4379",
"g  c #2F437A",
"h  c #2F447A",
"j  c #2F447B",
"k  c #30447B",
"l  c #30457C",
"z  c #30457D",
"x  c #31457D",
"c  c #31467E",
"v  c #32477F",
"b  c #324780",
"n  c #324880",
"m  c #334981",
"M  c #324882",
"N  c #334982",
"B  c #344983",
"V  c #344A83",
"C  c #354A84",
"Z  c #354B85",
"A  c #354B86",
"S  c #354C87",
"D  c #364C87",
"F  c #364D88",
"G  c #374E89",
"H  c #374E8A",
"J  c #374E8B",
"K  c #384F8C",
"L  c #38508C",
"P  c #39508D",
"I  c #39518E",
"U  c #3A518F",
"Y  c #3A528F",
"T  c #3A5391",
"R  c #3B5391",
"E  c #3B5492",
"W  c #3C5493",
"Q  c #3C5593",
"!  c #3C5594",
"~  c #3D5595",
"^  c #3D5695",
"/  c #3E5694",
"(  c #3D5696",
")  c #3D5797",
"_  c #3E5797",
"`  c #3E5898",
"'  c #3F5899",
"]  c #3F599B",
"[  c #405A9C",
"{  c #405B9E",
"}  c #415C9F",
"|  c #435D9F",
" . c #415CA0",
".. c #425DA0",
"X. c #435EA1",
"o. c #425EA2",
"O. c #465FA0",
"+. c #4561A6",
"@. c #4561A7",
"#. c #4761A6",
"$. c #4A62A3",
"%. c #4962A6",
"&. c #4562A8",
"*. c #4662A9",
"=. c #4764AB",
"-. c #4764AC",
";. c #4E66A8",
":. c #4F67A9",
">. c #4C66AA",
",. c #4F68AB",
"<. c #4E68AE",
"1. c #5269AC",
"2. c #546BAD",
"3. c #5A6FAF",
"4. c #526BB1",
"5. c #536CB1",
"6. c #536DB4",
"7. c #576FB4",
"8. c #5A70B0",
"9. c #5A70B2",
"0. c #5D72B1",
"q. c #5F73B4",
"w. c #6075B8",
"e. c #6175B9",
"r. c #6276B8",
"t. c #6578B9",
"y. c #667ABA",
"u. c #687BBC",
"i. c #6B7DBD",
"p. c #7081BF",
"a. c #7181C0",
"s. c #7383C0",
"d. c #7383C1",
"f. c #7584C1",
"g. c #7585C1",
"h. c #7786C2",
"j. c #7B89C4",
"k. c #7C8AC4",
"l. c gray54",
"z. c gray70",
"x. c #808DC6",
"c. c #818EC7",
"v. c #828FC7",
"b. c #838FC8",
"n. c #8490C8",
"m. c gray78",
"M. c gray100",
"N. c None",
/* pixels */
"N.N.N.N.N.N.N.N.N.N.N.N.N.N.N.N.N.N.N.N.N.N.N.N.N.N.N.N.N.N.",
"N.N.N.N.N.N.N.N.N.N.N.N.N.N.N.N.N.N.N.N.N.N.N.N.N.N.N.N.N.N.",
"N.N.N.N.N.N.N.N.N.N.N.N.N.N.N.N.N.N.N.N.N.N.N.N.N.N.N.N.N.N.",
"N.N.N.N.N.M.z.N.N.N.N.N.N.N.N.N.N.N.N.N.N.N.N.N.N.N.N.N.N.N.",
"N.N.N.N.N.M.l.N.N.N.N.N.N.N.N.N.N.N.N.N.N.N.N.N.N.N.N.N.N.N.",
"N.N.N.M.M.M.m.M.M.N.N.N.N.N.N.N.N.N.N.N.N.N.N.N.N.N.N.N.N.N.",
"N.N.N.z.l.m.m.l.l.N.N.N.N.N.N.N.N.N.N.N.N.N.N.N.N.N.N.N.N.N.",
"N.N.N.N.N.M.l.N.N.N.N.N.N.N.N.N.N.N.N.N.N.N.N.N.N.N.N.N.N.N.",
"N.N.N.N.N.M.l.N.N.N.N.N.N.N.N.N.N.N.N.N.N.N.N.N.N.N.N.N.N.N.",
"N.N.N.N.N.N.N.N.N.N.N.N.N.N.N.N.N.N.N.N.N.N.N.N.N.N.N.N.N.N.",
"N.N.N.N.N.N.N.N.N.N.N.N.N.N.N.N.N.N.N.N.N.N.N.N.N.N.N.N.N.N.",
"N.N.N.N.N.N.N.N.N.N.N.N.N.N.N.N.N.N.N.N.N.N.N.N.N.N.N.N.N.N.",
"N.N.N.N.N.N.N.N.N.N.N.N.N.h n B Z G G b l t N.N.N.N.N.N.N.N.",
"N.N.N.N.N.N.N.N.N.N.k Z I W _ ..5.u.f.d.y.;._ d , N.N.N.N.N.",
"N.N.N.N.N.N.N.N.N.D I G D D G I O.q.p.v.b.f.r.#.I 6 N.N.N.N.",
"N.N.N.N.N.N.N.N.I I n p e e e p f l D _ %.1.5.-...I 6 N.N.N.",
"N.N.N.N.N.N.N.I ) A e - % + O % + % = 3 t n I [ [ _ l + N.N.",
"N.N.N.N.N.N.N.' ] A , O X X O N.N.N.N.N.O O e Z _ W n 3 N.N.",
"N.N.N.N.N.N.h ...._ e X N.N.N.N.N.N.N.N.N.N.N.p I K l - O N.",
"N.N.N.N.N.N.r ] &.#.` p N.N.N.N.N.N.N.N.N.N.d Z R Z p = O N.",
"N.N.N.N.N.N.N.I &.6.7.>.` n l 8 N.N.N.d b D R R G d 3 O N.N.",
"N.N.N.N.N.N.N.3 _ <.i.f.d.y.9.,.%.....{ [ ' W G h 6 % O N.N.",
"N.N.N.N.N.N.N.N.3 K #.r.j.b.n.v.k.d.r.-...R n d , + % N.N.N.",
"N.N.N.N.N.N.N.N.N.% u G ' ;.3.0.8.1...R n d 3 - O O N.N.N.N.",
"N.N.N.N.N.N.N.N.N.N.O % , e e p d r e 3 - + O O O N.N.N.N.N.",
"N.N.N.N.N.N.N.N.N.N.N.N.N.O O O X + O X X O N.N.N.N.N.N.N.N.",
"N.N.N.N.N.N.N.N.N.N.N.N.N.N.N.N.N.N.N.N.N.N.N.N.N.N.N.N.N.N.",
"N.N.N.N.N.N.N.N.N.N.N.N.N.N.N.N.N.N.N.N.N.N.N.N.N.N.N.N.N.N.",
"N.N.N.N.N.N.N.N.N.N.N.N.N.N.N.N.N.N.N.N.N.N.N.N.N.N.N.N.N.N.",
"N.N.N.N.N.N.N.N.N.N.N.N.N.N.N.N.N.N.N.N.N.N.N.N.N.N.N.N.N.N."
};
